<svg xmlns="http://www.w3.org/2000/svg" xmlns:xlink="http://www.w3.org/1999/xlink" width="92" height="92.000244140625" viewBox="0 0 92 92.000244140625" fill="none">
    <rect x="0" y="0" width="92" height="92"   fill="#000000" fill-opacity="0">
    </rect>
    <path d="M71.4011 28.2291C71.5537 26.9634 71.4042 26.8146 70.1528 26.8146C62.1925 26.8129 54.2325 26.8135 46.2723 26.8142C38.3423 26.8146 30.412 26.8139 22.4817 26.8152C21.0319 26.8152 21.0312 26.8189 21.0312 28.2469C21.0328 41.8401 21.0344 55.4336 21.0365 69.0268C21.0365 69.3254 21.0305 69.6247 21.0483 69.9227C21.1954 72.4025 22.9979 74.1236 25.4874 74.1513C26.7739 74.1652 28.0611 74.1703 29.3477 74.1516C30.0218 74.1423 30.352 74.4289 30.3493 75.1053C30.3337 79.0483 30.3246 82.9912 30.3067 86.9339C30.2945 89.6753 31.3885 91.2866 33.7541 91.7665C35.3094 92.0824 36.91 92.0319 38.4812 91.7485C40.175 91.4429 41.7432 89.1491 41.717 87.6812C41.6423 83.53 41.7135 79.3763 41.6856 75.2237C41.68 74.3937 41.9777 74.1285 42.787 74.1419C45.0907 74.1789 47.395 74.1535 49.6995 74.1549C51.1151 74.156 51.1779 74.213 51.1796 75.6108C51.1842 79.584 51.171 83.5578 51.1888 87.5311C51.1993 89.8392 52.6594 91.5808 54.9184 91.8436C56.1245 91.9842 57.3561 92.0743 58.5821 91.9155C59.0625 91.8531 59.5107 91.7358 59.9503 91.5212C61.8235 90.6076 62.5119 89.0124 62.5209 87.0524C62.5388 83.139 62.522 79.2255 62.527 75.3117C62.5285 74.2095 62.5853 74.162 63.7088 74.1566C64.9357 74.151 66.1635 74.1825 67.3894 74.1458C69.3421 74.0871 71.4836 72.1132 71.4025 70.2407C71.3351 68.682 71.4749 67.1418 71.4763 65.5933C71.4874 53.8822 71.4778 42.1713 71.493 30.4603C71.4941 29.7132 71.31 28.984 71.4011 28.2291Z"   fill="#FFFFFF" >
    </path>
    <path d="M22.1595 23.9464C30.1482 23.949 38.1371 23.948 46.126 23.949C54.1448 23.9501 62.1634 23.9522 70.1825 23.948C71.3794 23.9476 71.4714 23.8059 71.0798 22.7195C68.9168 16.713 65.1407 12.0131 59.6764 8.67909C58.8157 8.15371 58.7437 7.78706 59.3031 6.93447C59.9253 5.9858 60.5485 5.03764 61.1575 4.08037C61.7337 3.17401 62.3041 2.26336 62.8527 1.3402C63.1094 0.908317 63.0996 0.480072 62.6325 0.162763C62.1551 -0.161839 61.7818 0.0384163 61.4633 0.417965C61.3103 0.600123 61.1927 0.811576 61.0565 1.00792C59.8 2.82441 58.7863 4.79469 57.4812 6.5824C57.1087 7.0928 56.7819 7.19683 56.2106 6.94359C55.3925 6.58161 54.556 6.23162 53.6938 6.00195C47.7473 4.41721 41.8732 4.49937 36.1232 6.88044C35.5892 7.10167 35.2283 7.0139 34.9218 6.50897C34.3484 5.56432 33.7407 4.64078 33.1451 3.70982C32.4529 2.62834 31.7632 1.54541 31.0631 0.469395C30.7759 0.0281307 30.3758 -0.0990805 29.9026 0.161201C29.3998 0.437236 29.3892 0.845949 29.6414 1.30492C29.7993 1.59267 29.9383 1.8924 30.1153 2.16766C31.1004 3.69862 32.0944 5.2237 33.0857 6.75089C33.6926 7.68564 33.6317 8.0683 32.7501 8.57245C30.5572 9.82763 28.571 11.3333 26.8466 13.194C24.2908 15.9517 22.374 19.0824 21.1716 22.6415C20.7585 23.8656 20.8325 23.9462 22.1595 23.9464ZM56.5582 13.247C57.8276 13.2387 59.1742 14.536 59.2148 15.8063C59.2565 17.1051 57.9228 18.5023 56.6121 18.5337C55.2652 18.5653 53.9609 17.297 53.921 15.9164C53.8841 14.6451 55.2573 13.2553 56.5582 13.247ZM35.3318 13.6264C36.5919 13.568 37.7263 14.8873 37.7186 16.2604C37.711 17.6427 36.5836 18.8627 35.293 18.8857C33.9426 18.91 32.683 17.6444 32.6784 16.259C32.5772 14.5847 33.8897 13.6937 35.3318 13.6264Z"   fill="#FFFFFF" >
    </path>
    <path d="M85.8392 40.9943C85.8388 38.4873 85.8827 35.979 85.8169 33.4739C85.7707 31.7233 85.0269 30.383 83.3551 29.5341C82.0368 28.8647 80.6894 28.9725 79.3272 28.9707C76.3691 28.9673 74.5189 30.8252 74.5151 33.7791C74.5099 37.8975 74.5138 42.0159 74.5134 46.1347C74.5129 50.343 74.5155 54.5508 74.5117 58.7591C74.51 60.512 75.2006 61.8299 76.7499 62.7545C78.204 63.6224 79.7518 63.4117 81.2882 63.3385C81.7575 63.3161 82.2792 63.4785 82.6906 63.2765C84.6807 62.2979 85.8754 60.8223 85.8548 58.4531C85.8043 52.6341 85.8397 46.8139 85.8392 40.9943Z"   fill="#FFFFFF" >
    </path>
    <path d="M13.0687 28.9661C12.3807 28.9692 11.6926 28.9613 11.0046 28.9669C7.98995 28.9914 5.85205 31.37 6.17719 34.3751C6.25779 35.1204 6.28714 35.8623 6.28714 36.6087C6.28714 40.1627 6.28714 43.7167 6.2874 47.2705C6.28766 51.1831 6.27553 55.0955 6.29327 59.0079C6.30097 60.7097 7.12759 61.9054 8.6002 62.772C10.117 63.664 11.7421 63.4795 13.3239 63.3391C15.998 63.1026 17.6263 61.1961 17.6078 58.522C17.5965 56.9116 17.4705 55.3013 17.4805 53.6916C17.5222 46.9745 17.3222 40.2552 17.6142 33.5401C17.7394 30.6631 15.0199 28.9574 13.0687 28.9661Z"   fill="#FFFFFF" >
    </path>
</svg>
