<svg xmlns="http://www.w3.org/2000/svg" xmlns:xlink="http://www.w3.org/1999/xlink" width="179.8828125" height="123.22265625" viewBox="0 0 179.8828125 123.22265625" fill="none">
    <path d="M164.841 0L15.0667 0C14.8183 0.00186688 14.5703 0.00974305 14.3224 0.0236286C14.0744 0.0376314 13.827 0.0576436 13.5801 0.0836652C13.3332 0.109687 13.087 0.141776 12.8417 0.179934C12.5964 0.217974 12.3521 0.262022 12.1089 0.312084C11.8658 0.362143 11.624 0.418096 11.3836 0.47994C11.1431 0.541786 10.9044 0.609463 10.6673 0.682977C10.4302 0.756494 10.1951 0.83578 9.96192 0.920848C9.72874 1.00591 9.4978 1.09658 9.2691 1.19285C9.0404 1.28912 8.81419 1.39099 8.5905 1.49846C8.36681 1.60581 8.14589 1.71859 7.92775 1.8368C7.7096 1.95489 7.4945 2.07829 7.28246 2.20699C7.07039 2.33569 6.86163 2.46954 6.65617 2.60852C6.4507 2.74737 6.24877 2.89119 6.0504 3.03997C5.85202 3.18875 5.65742 3.34225 5.46659 3.50048C5.27577 3.65883 5.08895 3.82172 4.90616 3.98917C4.72336 4.15663 4.5448 4.32839 4.37046 4.50447C4.19611 4.68068 4.02623 4.86101 3.86077 5.0455C3.69532 5.22986 3.5345 5.41827 3.37834 5.61068C3.22216 5.80299 3.07081 5.99902 2.9243 6.19879C2.77778 6.39845 2.63625 6.60159 2.49975 6.80825C2.36325 7.01492 2.23191 7.22478 2.10573 7.43785C1.97956 7.65092 1.85869 7.86691 1.74317 8.08582C1.62763 8.30484 1.51756 8.52655 1.41295 8.75094C1.30833 8.97521 1.2093 9.202 1.11586 9.4313C1.02241 9.66047 0.934668 9.89181 0.85262 10.1253C0.77057 10.3588 0.69432 10.5942 0.623865 10.8314C0.553409 11.0686 0.488834 11.3074 0.430143 11.5478C0.371449 11.7882 0.318708 12.0298 0.271921 12.2728C0.22513 12.5157 0.18435 12.7597 0.149577 13.0046C0.114805 13.2495 0.0860822 13.4952 0.0634097 13.7415C0.0407372 13.9879 0.0241419 14.2347 0.0136239 14.4819C0.00310602 14.729 -0.00132188 14.9763 0.000340216 15.2237L0.000340216 108.011C0.000340216 116.412 6.74646 123.223 15.0554 123.223L164.83 123.223C173.162 123.223 179.886 116.423 179.886 108.011L179.886 15.2349C179.886 6.83328 173.162 0.0112013 164.83 0.0112013L164.841 0ZM161.243 10.8996L101.507 64.4121C96.301 69.1058 92.4332 71.4358 89.9484 71.4358C87.4636 71.4358 83.5958 69.1058 78.3901 64.4121L18.6533 10.8996L161.232 10.8996L161.243 10.8996ZM11.1989 104.628L11.1989 20.7799L57.8482 62.1157L11.1876 104.628L11.1989 104.628ZM19.0356 112.324L65.8648 70.3156L73.5441 77.1153C77.9966 81.0472 83.4947 83.0748 89.9484 83.0748C96.4359 83.0748 101.9 81.0584 106.364 77.1153L114.043 70.3156L160.872 112.324L19.0356 112.324ZM168.709 104.628L122.049 62.1269L168.709 20.7911L168.709 104.628Z"   fill="#c1bfbf" >
    </path>
</svg>
