<svg xmlns="http://www.w3.org/2000/svg" xmlns:xlink="http://www.w3.org/1999/xlink" width="160" height="160" viewBox="0 0 160 160" fill="none">
    <path   fill="rgba(255, 255, 255, 1)"  d="M40 0L120 0C142.091 0 160 17.9086 160 40L160 120C160 142.091 142.091 160 120 160L40 160C17.9086 160 0 142.091 0 120L0 40C0 17.9086 17.9086 0 40 0ZM40 20C28.9543 20 20 28.9543 20 40L20 120C20 131.046 28.9543 140 40 140L120 140C131.046 140 140 131.046 140 120L140 40C140 28.9543 131.046 20 120 20L40 20Z">
    </path>
</svg>
