<svg xmlns="http://www.w3.org/2000/svg" xmlns:xlink="http://www.w3.org/1999/xlink" width="156.0001220703125" height="134" viewBox="0 0 156.0001220703125 134" fill="none">
    <path d="M0.000172019 8.375C0.000172019 3.75207 3.54918 0 7.73771 0L148.263 0C152.537 0 156 3.71837 156 8.375C156 12.9979 152.451 16.75 148.263 16.75L7.73771 16.75C7.61054 16.7498 7.48339 16.7463 7.35625 16.7395C7.22907 16.7326 7.10223 16.7223 6.97569 16.7088C6.84912 16.6953 6.72289 16.6784 6.59696 16.6581C6.47122 16.6378 6.3459 16.6142 6.22098 16.5874C6.09624 16.5606 5.97223 16.5304 5.84896 16.4968C5.72544 16.4634 5.60286 16.4268 5.4812 16.3869C5.35951 16.347 5.23885 16.3038 5.11923 16.2573C4.99958 16.2111 4.88097 16.1617 4.76336 16.1091C4.64593 16.0563 4.52985 16.0006 4.4151 15.9419C4.30011 15.8833 4.18658 15.8216 4.07446 15.7568C3.96252 15.692 3.85204 15.6243 3.74296 15.5536C3.63406 15.483 3.52682 15.4096 3.42121 15.3334C3.31579 15.2571 3.21207 15.1781 3.11012 15.0963C3.00815 15.0145 2.90811 14.9301 2.80999 14.8431C2.71189 14.756 2.61591 14.6664 2.52207 14.5741C2.42802 14.4821 2.33621 14.3876 2.24663 14.2905C2.15705 14.1934 2.06971 14.0941 1.9846 13.9925C1.89949 13.8908 1.81682 13.787 1.73659 13.681C1.65635 13.575 1.57855 13.4671 1.5032 13.3571C1.42783 13.247 1.35501 13.1349 1.28473 13.0208C1.21465 12.907 1.14712 12.7913 1.08211 12.6737C1.01732 12.5562 0.955267 12.437 0.895954 12.3162C0.836433 12.1953 0.779762 12.073 0.725932 11.9491C0.672106 11.8252 0.621224 11.7 0.573293 11.5735C0.525147 11.447 0.480059 11.3193 0.438012 11.1904C0.395758 11.0615 0.356557 10.9317 0.320397 10.8008C0.28404 10.6697 0.250827 10.5378 0.220765 10.405C0.190499 10.2724 0.163385 10.139 0.139414 10.0049C0.115443 9.87049 0.0945219 9.73571 0.0766508 9.6005C0.0587699 9.46525 0.0440508 9.32962 0.032465 9.19353C0.0206841 9.05743 0.0121575 8.92111 0.00687609 8.78459C0.00159466 8.64807 -0.000641583 8.51152 0.000172019 8.375ZM0.000172019 67C0.000172019 62.3771 3.54918 58.625 7.73771 58.625L148.263 58.625C152.537 58.625 156 62.3434 156 67C156 71.6229 152.451 75.375 148.263 75.375L7.73771 75.375C7.61054 75.3747 7.48339 75.3714 7.35625 75.3645C7.22907 75.3577 7.10223 75.3472 6.97569 75.3338C6.84912 75.3204 6.72289 75.3034 6.59696 75.2831C6.47122 75.2628 6.3459 75.2392 6.22098 75.2124C6.09624 75.1856 5.97223 75.1555 5.84896 75.1218C5.72544 75.0884 5.60286 75.0518 5.4812 75.0119C5.35951 74.972 5.23885 74.9288 5.11923 74.8823C4.99958 74.8362 4.88097 74.7868 4.76336 74.7341C4.64593 74.6814 4.52985 74.6255 4.4151 74.5669C4.30011 74.5084 4.18658 74.4466 4.07446 74.3818C3.96252 74.317 3.85204 74.2493 3.74296 74.1786C3.63406 74.108 3.52682 74.0347 3.42121 73.9585C3.31579 73.8822 3.21207 73.8031 3.11012 73.7213C3.00815 73.6395 2.90811 73.5551 2.80999 73.468C2.71189 73.381 2.61591 73.2914 2.52207 73.1991C2.42802 73.1072 2.33621 73.0127 2.24663 72.9155C2.15705 72.8183 2.06971 72.7192 1.9846 72.6175C1.89949 72.5157 1.81682 72.412 1.73659 72.306C1.65635 72.2 1.57855 72.0921 1.5032 71.9821C1.42783 71.8719 1.35501 71.76 1.28473 71.6458C1.21465 71.532 1.14712 71.4162 1.08211 71.2987C1.01732 71.1813 0.955267 71.0619 0.895954 70.9412C0.836433 70.8204 0.779762 70.6981 0.725932 70.5741C0.672106 70.4501 0.621224 70.3251 0.573293 70.1985C0.525147 70.0719 0.480059 69.9443 0.438012 69.8154C0.395758 69.6865 0.356557 69.5567 0.320397 69.4258C0.28404 69.2946 0.250827 69.1628 0.220765 69.03C0.190499 68.8975 0.163385 68.764 0.139414 68.6299C0.115443 68.4954 0.0945219 68.3606 0.0766508 68.2255C0.0587699 68.0904 0.0440508 67.9546 0.032465 67.8185C0.0206841 67.6824 0.0121575 67.546 0.00687609 67.4096C0.00159466 67.2732 -0.000641583 67.1364 0.000172019 67ZM0.000172019 125.625C0.000172019 121.002 3.54918 117.25 7.73771 117.25L148.263 117.25C152.537 117.25 156 120.968 156 125.625C156 130.248 152.451 134 148.263 134L7.73771 134C7.61054 134 7.48339 133.996 7.35625 133.99C7.22907 133.983 7.10223 133.972 6.97569 133.959C6.84912 133.945 6.72289 133.928 6.59696 133.908C6.47122 133.888 6.3459 133.864 6.22098 133.837C6.09624 133.811 5.97223 133.78 5.84896 133.747C5.72544 133.713 5.60286 133.677 5.4812 133.637C5.35951 133.597 5.23885 133.554 5.11923 133.507C4.99958 133.461 4.88097 133.412 4.76336 133.359C4.64593 133.306 4.52985 133.251 4.4151 133.192C4.30011 133.133 4.18658 133.072 4.07446 133.007C3.96252 132.942 3.85204 132.874 3.74296 132.804C3.63406 132.733 3.52682 132.66 3.42121 132.583C3.31579 132.507 3.21207 132.428 3.11012 132.346C3.00815 132.264 2.90811 132.18 2.80999 132.093C2.71189 132.006 2.61591 131.916 2.52207 131.824C2.42802 131.732 2.33621 131.638 2.24663 131.54C2.15705 131.443 2.06971 131.344 1.9846 131.242C1.89949 131.141 1.81682 131.037 1.73659 130.931C1.65635 130.825 1.57855 130.717 1.5032 130.607C1.42783 130.497 1.35501 130.385 1.28473 130.271C1.21465 130.157 1.14712 130.041 1.08211 129.924C1.01732 129.806 0.955267 129.687 0.895954 129.566C0.836433 129.445 0.779762 129.323 0.725932 129.199C0.672106 129.075 0.621224 128.95 0.573293 128.824C0.525147 128.697 0.480059 128.569 0.438012 128.44C0.395758 128.312 0.356557 128.182 0.320397 128.051C0.28404 127.92 0.250827 127.788 0.220765 127.655C0.190499 127.522 0.163385 127.389 0.139414 127.255C0.115443 127.12 0.0945219 126.986 0.0766508 126.85C0.0587699 126.715 0.0440508 126.58 0.032465 126.444C0.0206841 126.307 0.0121575 126.171 0.00687609 126.035C0.00159466 125.898 -0.000641583 125.761 0.000172019 125.625Z"   fill="#FFFFFF" >
    </path>
</svg>
