<svg xmlns="http://www.w3.org/2000/svg" xmlns:xlink="http://www.w3.org/1999/xlink" width="90" height="90" viewBox="0 0 90 90" fill="none">
    <circle cx="45" cy="45" r="45"   fill="#FDFE5E" >
    </circle>
    <circle cx="45.5" cy="45.5" r="41.5"   fill="#E21D02" >
    </circle>
    <path d="M40.5128 68C38.0598 63.2294 35.6667 58.075 35.6667 58.075C33.2735 52.9206 31.1197 47.8759 31.1197 47.8759C28.9658 42.8312 27.141 38.2251 27.141 38.2251C25.3162 33.619 24 30 24 30L34.2906 30C35.4872 33.29 36.8932 37.101 36.8932 37.101C38.2991 40.912 39.765 44.6955 39.765 44.6955C41.2308 48.4791 42.6068 51.9336 42.6068 51.9336C43.9829 55.3882 45.1795 57.9105 45.1795 57.9105C46.3162 55.3882 47.7222 51.9336 47.7222 51.9336C49.1282 48.4791 50.594 44.6955 50.594 44.6955C52.0598 40.912 53.4658 37.101 53.4658 37.101C54.8718 33.29 56.0684 30 56.0684 30L66 30C64.6239 33.619 62.8291 38.2251 62.8291 38.2251C61.0342 42.8312 58.8803 47.8759 58.8803 47.8759C56.7265 52.9206 54.3333 58.075 54.3333 58.075C51.9402 63.2294 49.4872 68 49.4872 68L40.5128 68Z"   fill="#FDFE5E" >
    </path>
</svg>
